<?xml version="1.0" encoding="UTF-8"?>
<svg version="1.1" xmlns="http://www.w3.org/2000/svg" width="744" height="364">
<path d="M0 0 C1.07507813 -0.06058594 2.15015625 -0.12117188 3.2578125 -0.18359375 C11.78105617 1.27990057 18.19522852 8.32644531 24.05688477 14.27880859 C24.81897751 15.04046326 25.58107025 15.80211792 26.36625671 16.58685303 C28.8568272 19.07949577 31.33663181 21.58255826 33.81640625 24.0859375 C35.55166457 25.82679731 37.28759108 27.5669913 39.02415466 29.30654907 C43.57305896 33.86685846 48.11287802 38.43610754 52.65081787 43.00732422 C57.29101978 47.67832055 61.93982127 52.34074102 66.58789062 57.00390625 C75.69199488 66.14009813 84.78681284 75.2854759 93.875 84.4375 C96.88023927 83.09007817 98.95778761 81.5986334 101.27009583 79.26272583 C101.92178238 78.60945313 102.57346893 77.95618042 103.24490356 77.28311157 C103.94888275 76.5672287 104.65286194 75.85134583 105.37817383 75.11376953 C106.12829239 74.35912415 106.87841095 73.60447876 107.65126038 72.82696533 C109.27944553 71.18782248 110.90535095 69.54641272 112.52924538 67.90301895 C115.10140973 65.30070689 117.68018158 62.7051151 120.26091003 60.11129761 C127.59728141 52.73516504 134.92097005 45.34648559 142.24145508 37.95458984 C146.72010585 33.43317715 151.20607992 28.91913389 155.69641685 24.40932846 C157.40451859 22.69067085 159.10969963 20.96910527 160.81186867 19.24457169 C163.19565508 16.82952152 165.58857967 14.42387954 167.98364258 12.02001953 C168.68154907 11.30818512 169.37945557 10.59635071 170.09851074 9.86294556 C175.95148483 4.02090944 181.10973703 -0.1287227 189.75 -0.1875 C190.88179688 -0.22101563 192.01359375 -0.25453125 193.1796875 -0.2890625 C201.74893557 1.39580023 208.11725534 8.24726552 214.05688477 14.27880859 C214.81897751 15.04046326 215.58107025 15.80211792 216.36625671 16.58685303 C218.8568272 19.07949577 221.33663181 21.58255826 223.81640625 24.0859375 C225.55166457 25.82679731 227.28759108 27.5669913 229.02415466 29.30654907 C233.57305896 33.86685846 238.11287802 38.43610754 242.65081787 43.00732422 C247.29101978 47.67832055 251.93982127 52.34074102 256.58789062 57.00390625 C265.69199488 66.14009813 274.78681284 75.2854759 283.875 84.4375 C286.88023927 83.09007817 288.95778761 81.5986334 291.27009583 79.26272583 C291.92178238 78.60945313 292.57346893 77.95618042 293.24490356 77.28311157 C293.94888275 76.5672287 294.65286194 75.85134583 295.37817383 75.11376953 C296.12829239 74.35912415 296.87841095 73.60447876 297.65126038 72.82696533 C299.27944553 71.18782248 300.90535095 69.54641272 302.52924538 67.90301895 C305.10140973 65.30070689 307.68018158 62.7051151 310.26091003 60.11129761 C317.59728141 52.73516504 324.92097005 45.34648559 332.24145508 37.95458984 C336.72010585 33.43317715 341.20607992 28.91913389 345.69641685 24.40932846 C347.40451859 22.69067085 349.10969963 20.96910527 350.81186867 19.24457169 C353.19565508 16.82952152 355.58857967 14.42387954 357.98364258 12.02001953 C358.68154907 11.30818512 359.37945557 10.59635071 360.09851074 9.86294556 C364.83926902 5.13104676 369.34381683 0.96572175 376.19140625 -0.05859375 C377.79822266 -0.02958984 377.79822266 -0.02958984 379.4375 0 C381.04818359 0.00193359 381.04818359 0.00193359 382.69140625 0.00390625 C396.12399967 1.83337603 408.0284598 18.44207639 417.17529297 27.5925293 C418.69715459 29.1113938 420.21921936 30.63005478 421.74147034 32.14852905 C425.84881037 36.24708722 429.95295106 40.3488343 434.05622244 44.45146537 C436.62233232 47.01686214 439.1891539 49.58154461 441.7562294 52.14597511 C450.71761479 61.09813068 459.67643531 70.0528437 468.6328125 79.01000977 C476.9750957 87.35289511 485.32295615 95.69017101 493.67341697 104.02487057 C500.85426082 111.1926442 508.03124944 118.3642625 515.20524132 125.538894 C519.48529766 129.81920521 523.7668902 134.09795151 528.05236435 138.37283897 C532.07710136 142.38790227 536.09701907 146.40772859 540.11327934 150.4312706 C541.58696067 151.90599823 543.06234993 153.37902143 544.53957176 154.85020256 C546.55666838 156.85958391 548.56749149 158.87504415 550.57687378 160.89213562 C551.1614982 161.47161648 551.74612262 162.05109734 552.34846294 162.64813823 C557.9402756 168.28742087 561.96808819 173.43747518 562.1875 181.625 C562.22488281 182.52605469 562.26226563 183.42710937 562.30078125 184.35546875 C561.23494504 192.07055837 556.51440047 197.38312272 551.14581299 202.68135071 C550.47017012 203.3639391 549.79452726 204.04652749 549.09841037 204.74980038 C546.84486251 207.02156123 544.57737587 209.27885568 542.30957031 211.53637695 C540.68569058 213.16731789 539.06265482 214.7990995 537.44039917 216.43165588 C533.04058103 220.85395235 528.62815334 225.26345972 524.21264744 229.67008615 C520.52580274 233.35181736 516.84518108 237.03973799 513.16453815 240.72766751 C503.98591447 249.92425556 494.79517303 259.1086258 485.5986875 268.28734835 C477.61893833 276.25239671 469.65395432 284.23202185 461.69598261 292.21882341 C453.51504736 300.42917417 445.32467011 308.62998836 437.12449718 316.82112664 C432.52457549 321.4161188 427.92830097 326.01461163 423.3411026 330.62230873 C419.0283236 334.95343639 414.70357466 339.2722437 410.36932755 343.58188438 C408.78156598 345.1646361 407.19804403 346.75165409 405.61912918 348.3432312 C403.46150133 350.51678749 401.28901079 352.6743269 399.11212158 354.8285675 C398.49225538 355.46026944 397.87238917 356.09197137 397.23373914 356.74281579 C392.22616339 361.64526438 386.62561035 364.86105652 379.375 364.875 C378.36953125 364.90400391 378.36953125 364.90400391 377.34375 364.93359375 C369.29547229 363.31629744 364.0707166 358.19664899 358.53125 352.54785156 C357.74004257 351.75722824 356.94883514 350.96660492 356.13365173 350.15202332 C353.53783197 347.55343143 350.95644493 344.94099068 348.375 342.328125 C346.5712697 340.51692929 344.76665042 338.7066185 342.96118164 336.89715576 C338.70762172 332.62991784 334.46308696 328.35390284 330.22285748 324.07343364 C325.39155773 319.1972931 320.54877982 314.33262039 315.70504379 309.46883821 C305.74894711 299.47102647 295.80722184 289.45902634 285.875 279.4375 C282.82818616 280.79837026 280.74417946 282.32618806 278.40397644 284.69493103 C277.73546158 285.3664772 277.06694672 286.03802338 276.37817383 286.72991943 C275.65549316 287.46607483 274.9328125 288.20223022 274.18823242 288.96069336 C273.41860672 289.73645218 272.64898102 290.512211 271.85603333 291.31147766 C270.18532085 292.99649657 268.51685261 294.68374292 266.85036278 296.37293816 C264.21133508 299.04672947 261.56529087 301.71338407 258.91706848 304.37806702 C251.3885802 311.95547543 243.87122241 319.54383684 236.36303711 327.14135742 C231.77030291 331.78856518 227.1669493 336.42511112 222.55794716 341.05618477 C220.80429968 342.82224112 219.05445551 344.59208256 217.30852318 346.36576653 C214.86475472 348.84802454 212.40885911 351.31766331 209.94995117 353.78491211 C209.2333432 354.51904327 208.51673523 355.25317444 207.77841187 356.009552 C202.56150324 361.20636023 197.63022471 364.86220013 189.9375 364.875 C188.77927734 364.90400391 188.77927734 364.90400391 187.59765625 364.93359375 C179.40844333 363.44144161 174.13940819 358.26669632 168.53125 352.54785156 C167.74004257 351.75722824 166.94883514 350.96660492 166.13365173 350.15202332 C163.53783197 347.55343143 160.95644493 344.94099068 158.375 342.328125 C156.5712697 340.51692929 154.76665042 338.7066185 152.96118164 336.89715576 C148.70762172 332.62991784 144.46308696 328.35390284 140.22285748 324.07343364 C135.39155773 319.1972931 130.54877982 314.33262039 125.70504379 309.46883821 C115.74894711 299.47102647 105.80722184 289.45902634 95.875 279.4375 C92.82818616 280.79837026 90.74417946 282.32618806 88.40397644 284.69493103 C87.73546158 285.3664772 87.06694672 286.03802338 86.37817383 286.72991943 C85.65549316 287.46607483 84.9328125 288.20223022 84.18823242 288.96069336 C83.41860672 289.73645218 82.64898102 290.512211 81.85603333 291.31147766 C80.18532085 292.99649657 78.51685261 294.68374292 76.85036278 296.37293816 C74.21133508 299.04672947 71.56529087 301.71338407 68.91706848 304.37806702 C61.3885802 311.95547543 53.87122241 319.54383684 46.36303711 327.14135742 C41.77030291 331.78856518 37.1669493 336.42511112 32.55794716 341.05618477 C30.80429968 342.82224112 29.05445551 344.59208256 27.30852318 346.36576653 C24.86475472 348.84802454 22.40885911 351.31766331 19.94995117 353.78491211 C19.2333432 354.51904327 18.51673523 355.25317444 17.77841187 356.009552 C13.1397133 360.63037797 9.12240973 363.72376723 2.50390625 364.8359375 C1.82199219 364.82820313 1.14007813 364.82046875 0.4375 364.8125 C-0.24183594 364.82023437 -0.92117187 364.82796875 -1.62109375 364.8359375 C-9.43776703 363.59209869 -14.0178131 360.27502003 -19.40681458 354.78387451 C-20.09348652 354.10429695 -20.78015847 353.4247194 -21.48763865 352.72454858 C-23.77566344 350.45406551 -26.04546426 348.16621534 -28.31567383 345.87792969 C-29.95624383 344.24249986 -31.59788337 342.60814233 -33.24050903 340.97477722 C-37.69183244 336.54196213 -42.12728664 332.09357811 -46.55951524 327.64168072 C-51.20146764 322.98333766 -55.85601469 318.33760819 -60.50871277 313.69000244 C-68.31970553 305.88444753 -76.11958358 298.06789098 -83.91381836 290.24560547 C-91.92758109 282.20300247 -99.95213987 274.1713662 -107.98803711 266.15087891 C-117.68085564 256.47662236 -127.36345885 246.7922737 -137.03748131 237.09922028 C-140.72950943 233.40032094 -144.42545844 229.70540593 -148.12461281 226.01363373 C-152.47992338 221.66598534 -156.82521778 217.30856658 -161.16298294 212.94341469 C-162.75629164 211.34322076 -164.35300685 209.74641038 -165.95335579 208.15325737 C-168.13766306 205.97764214 -170.30926875 203.79008426 -172.47810364 201.59906006 C-173.43149296 200.65803188 -173.43149296 200.65803188 -174.40414268 199.69799304 C-179.52620546 194.47882972 -182.56607478 189.44056187 -182.5 181.875 C-182.50773438 180.98683594 -182.51546875 180.09867188 -182.5234375 179.18359375 C-180.61933065 166.06019068 -163.92650836 154.09020166 -154.9699707 145.13720703 C-153.4511062 143.61534541 -151.93244522 142.09328064 -150.41397095 140.57102966 C-146.31541278 136.46368963 -142.2136657 132.35954894 -138.11103463 128.25627756 C-135.54563786 125.69016768 -132.98095539 123.1233461 -130.41652489 120.5562706 C-121.46436932 111.59488521 -112.5096563 102.63606469 -103.55249023 93.6796875 C-95.20960489 85.3374043 -86.87232899 76.98954385 -78.53762943 68.63908303 C-71.3698558 61.45823918 -64.1982375 54.28125056 -57.023606 47.10725868 C-52.74329479 42.82720234 -48.46454849 38.5456098 -44.18966103 34.26013565 C-40.17459773 30.23539864 -36.15477141 26.21548093 -32.1312294 22.19922066 C-30.65650177 20.72553933 -29.18347857 19.25015007 -27.71229744 17.77292824 C-25.70291609 15.75583162 -23.68745585 13.74500851 -21.67036438 11.73562622 C-21.09088352 11.1510018 -20.51140266 10.56637738 -19.91436177 9.96403706 C-13.90235767 4.00264041 -8.65687903 0.33767968 0 0 Z M90.70658875 91.45874023 C89.69087799 92.46371803 89.69087799 92.46371803 88.65464783 93.48899841 C87.90711746 94.23383987 87.1595871 94.97868134 86.3894043 95.74609375 C85.60564423 96.52328262 84.82188416 97.3004715 84.01437378 98.10121155 C81.40631433 100.68946702 78.80236638 103.28180494 76.19921875 105.875 C75.31149088 106.75865234 74.42376301 107.64230469 73.50913429 108.55273438 C69.29287474 112.75025709 65.07871064 116.94986597 60.86765164 121.15260506 C56.01257118 125.99793493 51.14935352 130.83489808 46.27894086 135.66481495 C42.05807325 139.85179335 37.84829666 144.0498071 33.642313 148.2517395 C31.85434755 150.03483602 30.06300653 151.81455448 28.26822472 153.59078979 C25.7522072 156.08242523 23.24915579 158.58643218 20.7487793 161.09375 C20.00732162 161.82239761 19.26586395 162.55104523 18.50193787 163.30177307 C13.38455435 168.4709859 8.83308019 173.89850253 8.375 181.4375 C8.90766653 190.17559731 14.93036074 196.06023445 20.85644531 201.87304688 C21.6568222 202.67400787 22.4571991 203.47496887 23.28182983 204.30020142 C25.91288606 206.92848516 28.5577956 209.54233919 31.203125 212.15625 C33.03674091 213.98240063 34.86947198 215.80944012 36.70135498 217.6373291 C41.02171342 221.94400869 45.35085533 226.24166919 49.68444896 230.53502512 C54.62104667 235.42678474 59.54617885 240.3300201 64.47041941 245.23421383 C74.59264382 255.31472125 84.72906219 265.38086305 94.875 275.4375 C100.0202456 271.12771281 104.8501655 266.61567016 109.59863281 261.875 C110.33610748 261.14249023 111.07358215 260.40998047 111.83340454 259.65527344 C114.25107454 257.25210725 116.66492481 254.84515414 119.078125 252.4375 C120.7648722 250.75651038 122.45161943 249.0755208 124.1383667 247.39453125 C127.66383757 243.87953427 131.18699956 240.36223972 134.70898438 236.84375 C139.22037219 232.33786413 143.74097405 227.84134197 148.2637825 223.34692383 C151.74664139 219.88268427 155.22277852 216.41175925 158.69710541 212.93896484 C160.36118136 211.27791338 162.02775558 209.61936079 163.69687653 207.96337891 C166.02803864 205.64927488 168.3495486 203.32588807 170.66894531 201 C171.70225479 199.9805127 171.70225479 199.9805127 172.75643921 198.94042969 C177.28231784 194.37476264 181.29990721 189.83742315 181.3125 183.0625 C181.33183594 182.37414062 181.35117187 181.68578125 181.37109375 180.9765625 C179.78367073 172.85195648 174.59599937 167.5915061 168.90942383 162.00195312 C167.71126793 160.80051163 167.71126793 160.80051163 166.48890686 159.57479858 C163.86279553 156.94638724 161.2227302 154.3324984 158.58203125 151.71875 C156.75088243 149.89252657 154.92054608 148.06548813 153.09098816 146.2376709 C149.26465485 142.41896295 145.43224276 138.60653283 141.59399414 134.79980469 C136.66175045 129.90801157 131.74115239 125.00467717 126.82429981 120.09741974 C122.14329982 115.42559087 117.45656248 110.75952738 112.76953125 106.09375 C111.87028238 105.19789688 110.97103352 104.30204376 110.04453468 103.37904358 C107.51654591 100.86256361 104.985098 98.34962236 102.45239258 95.83789062 C101.69551147 95.08369843 100.93863037 94.32950623 100.15881348 93.55245972 C99.13048149 92.53486069 99.13048149 92.53486069 98.08137512 91.4967041 C97.48279599 90.90239845 96.88421686 90.3080928 96.26749897 89.69577789 C93.66172856 87.34117414 92.90138706 89.27980686 90.70658875 91.45874023 Z M281.66862488 91.4967041 C280.98307022 92.17510345 280.29751556 92.85350281 279.59118652 93.55245972 C278.83430542 94.30665192 278.07742432 95.06084412 277.29760742 95.83789062 C276.50409378 96.62483307 275.71058014 97.41177551 274.89302063 98.2225647 C272.25249555 100.84328576 269.61608185 103.46808952 266.98046875 106.09375 C266.08170832 106.98843491 265.18294788 107.88311981 264.25695229 108.80491638 C259.98836556 113.05476634 255.72187832 117.3066983 251.45849246 121.56176424 C246.54285188 126.4676538 241.61907228 131.36517767 236.68810004 136.25565577 C232.4148994 140.49496963 228.15281425 144.74528973 223.89449501 148.9995575 C222.08420078 150.80498243 220.27053065 152.60702899 218.45342064 154.40559387 C215.90627289 156.92836288 213.372084 159.46350337 210.84057617 162.00195312 C210.08976776 162.73995148 209.33895935 163.47794983 208.56539917 164.23831177 C203.68929542 169.16320238 199.82019397 173.98257841 198.34375 180.94140625 C198.35921875 181.96041016 198.35921875 181.96041016 198.375 183 C198.3646875 183.68191406 198.354375 184.36382812 198.34375 185.06640625 C200.00637396 192.48708819 205.5504618 197.52922726 210.76464844 202.66772461 C211.55527176 203.45878601 212.34589508 204.24984741 213.16047668 205.06488037 C215.76139141 207.66371415 218.37275192 210.25177503 220.984375 212.83984375 C222.79535252 214.64522288 224.60566646 216.45126787 226.41534424 218.25794983 C230.68440746 222.51675017 234.96007774 226.76880421 239.23906636 231.01762348 C244.1132173 235.85815755 248.9787784 240.70728723 253.84366179 245.5571326 C263.84462626 255.52680092 273.85624868 265.48570852 283.875 275.4375 C289.009836 271.13447083 293.83747061 266.63324521 298.58276367 261.90673828 C299.31863205 261.1774411 300.05450043 260.44814392 300.81266785 259.69674683 C303.22566018 257.30332678 305.63474228 254.90602737 308.04296875 252.5078125 C308.87003138 251.6848254 309.697094 250.8618383 310.54921913 250.0139122 C314.92046628 245.66344982 319.28848261 241.30977203 323.65405273 236.95361328 C328.15465884 232.46410018 332.66682352 227.98639117 337.18165112 223.5111866 C340.66190663 220.05708938 344.13323397 216.59412287 347.60222816 213.12871933 C349.2618008 211.47400875 350.92474261 209.8226699 352.59114647 208.17483902 C354.92211768 205.86825739 357.24009186 203.54932028 359.55541992 201.22705078 C360.24069763 200.55458313 360.92597534 199.88211548 361.63201904 199.18927002 C366.60149339 194.16544162 370.93835996 188.74500932 371.375 181.4375 C370.84744461 172.75509278 364.88682596 166.87767049 359.0012207 161.09375 C358.21220367 160.30254257 357.42318665 159.51133514 356.61026001 158.69615173 C354.01661276 156.10020477 351.4090164 153.51878277 348.80078125 150.9375 C346.99205264 149.13369687 345.18413657 147.32907865 343.3769989 145.52368164 C339.59774357 141.75205124 335.81240731 137.98669562 332.02124023 134.22705078 C327.14952964 129.39579276 322.28946714 124.55299229 317.43314838 119.70626831 C312.80961566 115.09190665 308.18034497 110.48330956 303.55078125 105.875 C302.66260523 104.99021973 301.77442921 104.10543945 300.85933876 103.19384766 C298.36248274 100.7085005 295.86216814 98.22669251 293.3605957 95.74609375 C292.61306534 95.00125229 291.86553497 94.25641083 291.09535217 93.48899841 C290.07964142 92.48402061 290.07964142 92.48402061 289.04341125 91.45874023 C288.45220647 90.87180893 287.86100168 90.28487762 287.2518816 89.68016052 C284.64734734 87.32952129 283.85367206 89.32725679 281.66862488 91.4967041 Z " fill="#9E005D" transform="translate(182.125,-0.4375)"/>
<path d="M0 0 C1.61068359 0.00193359 1.61068359 0.00193359 3.25390625 0.00390625 C16.68649967 1.83337603 28.5909598 18.44207639 37.73779297 27.5925293 C39.25965459 29.1113938 40.78171936 30.63005478 42.30397034 32.14852905 C46.41131037 36.24708722 50.51545106 40.3488343 54.61872244 44.45146537 C57.18483232 47.01686214 59.7516539 49.58154461 62.3187294 52.14597511 C71.28011479 61.09813068 80.23893531 70.0528437 89.1953125 79.01000977 C97.5375957 87.35289511 105.88545615 95.69017101 114.23591697 104.02487057 C121.41676082 111.1926442 128.59374944 118.3642625 135.76774132 125.538894 C140.04779766 129.81920521 144.3293902 134.09795151 148.61486435 138.37283897 C152.63960136 142.38790227 156.65951907 146.40772859 160.67577934 150.4312706 C162.14946067 151.90599823 163.62484993 153.37902143 165.10207176 154.85020256 C167.11916838 156.85958391 169.12999149 158.87504415 171.13937378 160.89213562 C171.7239982 161.47161648 172.30862262 162.05109734 172.91096294 162.64813823 C179.42507053 169.21754534 182.4375 173.88831584 182.4375 183.4375 C119.4075 183.4375 56.3775 183.4375 -8.5625 183.4375 C-9.5525 178.9825 -9.5525 178.9825 -10.5625 174.4375 C-11.72114181 172.07314075 -11.72114181 172.07314075 -13.26039314 170.31713867 C-13.79379822 169.66417816 -14.3272033 169.01121765 -14.87677217 168.33847046 C-17.62145951 165.24332695 -20.45717721 162.27419744 -23.39620972 159.36328125 C-24.0587882 158.69899392 -24.72136667 158.03470659 -25.40402329 157.35028934 C-27.60561868 155.14542313 -29.81424176 152.94773991 -32.02294922 150.75 C-33.61045076 149.1630631 -35.19751106 147.5756847 -36.78416443 145.98789978 C-41.07879276 141.69269897 -45.37954792 137.40368116 -49.68144751 133.11576462 C-54.18136441 128.6283726 -58.67559674 124.13529463 -63.17044067 119.64282227 C-70.71099452 112.10777306 -78.25502599 104.57622359 -85.80175781 97.04736328 C-93.57201582 89.29548691 -101.34015287 81.54149517 -109.10546875 73.78466797 C-109.5847987 73.30586347 -110.06412864 72.82705897 -110.55798374 72.33374524 C-112.96282987 69.93150934 -115.36763459 67.529232 -117.77241874 65.12693405 C-137.69603096 45.2240269 -157.62695482 25.32845407 -177.5625 5.4375 C-174.5625 5.4375 -174.5625 5.4375 -172.95958424 6.67127228 C-172.37977645 7.25384544 -171.79996866 7.83641861 -171.20259094 8.43664551 C-170.53374878 9.10136368 -169.86490662 9.76608185 -169.17579651 10.45094299 C-168.44787399 11.18965134 -167.71995148 11.92835968 -166.9699707 12.68945312 C-166.19900055 13.4599852 -165.4280304 14.23051727 -164.63369751 15.0243988 C-162.07805396 17.58213833 -159.53320992 20.15035261 -156.98828125 22.71875 C-155.222023 24.4906013 -153.4551028 26.26179296 -151.68754578 28.03234863 C-147.50655094 32.22364147 -143.33229092 36.4215643 -139.16121787 40.62272501 C-133.94697321 45.87376443 -128.72239101 51.1144807 -123.49804688 56.35546875 C-114.17785653 65.70786406 -104.86693728 75.06943364 -95.5625 84.4375 C-92.55726073 83.09007817 -90.47971239 81.5986334 -88.16740417 79.26272583 C-87.51571762 78.60945313 -86.86403107 77.95618042 -86.19259644 77.28311157 C-85.48861725 76.5672287 -84.78463806 75.85134583 -84.05932617 75.11376953 C-83.30920761 74.35912415 -82.55908905 73.60447876 -81.78623962 72.82696533 C-80.15805447 71.18782248 -78.53214905 69.54641272 -76.90825462 67.90301895 C-74.33609027 65.30070689 -71.75731842 62.7051151 -69.17658997 60.11129761 C-61.84021859 52.73516504 -54.51652995 45.34648559 -47.19604492 37.95458984 C-42.71739415 33.43317715 -38.23142008 28.91913389 -33.74108315 24.40932846 C-32.03298141 22.69067085 -30.32780037 20.96910527 -28.62563133 19.24457169 C-26.24184492 16.82952152 -23.84892033 14.42387954 -21.45385742 12.02001953 C-20.75595093 11.30818512 -20.05804443 10.59635071 -19.33898926 9.86294556 C-13.60033082 4.13501146 -8.50682945 -0.15355288 0 0 Z " fill="#9E005D" transform="translate(561.5625,-0.4375)"/>
<path d="M0 0 C63.03 0 126.06 0 191 0 C188.29357711 8.11926867 184.26204046 13.03488812 178.3400116 18.92741394 C177.67183027 19.60012638 177.00364895 20.27283882 176.3152197 20.96593648 C174.08231224 23.21147128 171.84235071 25.44983015 169.60229492 27.68823242 C167.99691928 29.2995942 166.39195415 30.91136507 164.78736877 32.52351379 C160.43265561 36.89588199 156.07148456 41.26175309 151.70857406 45.62594008 C148.98299643 48.35293975 146.25884804 51.08135868 143.53521156 53.81029701 C134.52349263 62.83955802 125.50766819 71.86468085 116.48642429 80.88442334 C116.00065769 81.37011002 115.51489109 81.85579671 115.0144043 82.35620117 C114.52804165 82.84248205 114.04167901 83.32876294 113.5405781 83.8297796 C105.65468437 91.71486003 97.77882111 99.60987551 89.90744063 107.50944158 C81.81830111 115.62731684 73.72154569 123.73751032 65.61734277 131.84035188 C61.07021926 136.38696527 56.52626067 140.93663548 51.9899807 145.49407005 C47.72493747 149.77845963 43.45041926 154.05316258 39.16841698 158.32060051 C37.59883386 159.88809023 36.03265967 161.45900201 34.47017288 163.03356552 C32.33622469 165.18293519 30.19030282 167.31959854 28.04093933 169.45353699 C27.42594218 170.07882127 26.81094503 170.70410554 26.1773116 171.34833783 C21.75981794 175.69610951 17.65140467 178.44576893 11.375 179.3984375 C10.59125 179.39070312 9.8075 179.38296875 9 179.375 C8.21625 179.38273438 7.4325 179.39046875 6.625 179.3984375 C-1.42579118 178.17644241 -5.90986818 173.64963783 -11.41381836 168.0402832 C-12.2243869 167.23029877 -13.03495544 166.42031433 -13.87008667 165.58578491 C-16.53626835 162.91682545 -19.18801623 160.23399681 -21.83984375 157.55078125 C-23.68984483 155.69331677 -25.54073336 153.83673578 -27.39247131 151.98100281 C-31.76002331 147.60104732 -36.11728345 143.21100132 -40.47088867 138.81718749 C-45.43035789 133.81291856 -50.40126911 128.82008172 -55.37314785 123.82814658 C-65.59482706 113.56472263 -75.80214917 103.28709978 -86 93 C-84.64811528 89.97932405 -83.14623327 87.90521621 -80.79399109 85.58712769 C-80.13374939 84.93136246 -79.47350769 84.27559723 -78.79325867 83.59996033 C-78.0695961 82.89134354 -77.34593353 82.18272675 -76.6003418 81.45263672 C-75.4561528 80.32005684 -75.4561528 80.32005684 -74.28884888 79.16459656 C-72.63162477 77.52502783 -70.97221315 75.88766791 -69.31088829 74.25225449 C-66.67819147 71.65897504 -64.0530815 69.05824235 -61.43013 66.45510864 C-53.97130722 59.05431632 -46.50313928 51.6630836 -39.01977539 44.28710938 C-34.44203097 39.77399663 -29.87671772 35.24861639 -25.31888771 30.71539688 C-23.58329147 28.99401815 -21.84304063 27.27731884 -20.09799767 25.56551743 C-17.64958172 23.16308158 -15.21728945 20.74532578 -12.7878418 18.32373047 C-12.07025192 17.62725906 -11.35266205 16.93078766 -10.61332703 16.21321106 C-5.36481247 10.93343464 -3.56734914 7.13469827 0 0 Z " fill="#C5669E" transform="translate(553,183)"/>
<path d="M0 0 C63.03 0 126.06 0 191 0 C192.65 3.3 194.3 6.6 196 10 C197.76434691 12.46549594 197.76434691 12.46549594 199.67634583 14.27761841 C200.36476562 14.97291153 201.05318542 15.66820465 201.76246643 16.38456726 C202.87161659 17.46675285 202.87161659 17.46675285 204.00317383 18.57080078 C204.79394318 19.36230026 205.58471252 20.15379974 206.39944458 20.96928406 C208.99028873 23.55667247 211.59832869 26.12594154 214.20703125 28.6953125 C216.01701707 30.49596316 217.82589489 32.2977282 219.63371277 34.10055542 C223.89200778 38.34177508 228.16122997 42.5716772 232.4360854 46.79618061 C237.30700939 51.61098456 242.16353994 56.44019851 247.01898539 61.27060342 C256.99685755 71.19638141 266.99243878 81.10416275 277 91 C275.6339808 94.05403415 274.08558696 96.16838313 271.73152161 98.53590393 C270.72025208 99.55996841 270.72025208 99.55996841 269.68855286 100.60472107 C268.9493309 101.34303665 268.21010895 102.08135223 267.44848633 102.84204102 C266.66939911 103.62784546 265.89031189 104.4136499 265.08761597 105.2232666 C262.5077363 107.8221606 259.92036002 110.41342861 257.33203125 113.00390625 C255.53546968 114.80689356 253.7390596 116.61003184 251.9427948 118.41331482 C248.17433376 122.1937574 244.40179808 125.97007711 240.62670898 129.74389648 C236.27095229 134.09845253 231.92646427 138.46402917 227.58713895 142.83495384 C223.40455715 147.04689852 219.21089372 151.24768622 215.01300621 155.44437981 C213.23201771 157.22772758 211.45426951 159.01431751 209.67984962 160.80420113 C207.19546658 163.30819873 204.69870624 165.79918232 202.19848633 168.28735352 C201.46938553 169.02769333 200.74028473 169.76803314 199.98908997 170.5308075 C194.51891909 175.93430606 189.55009587 179.40505087 181.5625 179.5 C180.26505859 179.54640625 180.26505859 179.54640625 178.94140625 179.59375 C171.55036149 178.1017994 165.98125241 172.41942606 160.83880615 167.22648621 C160.16509043 166.55815602 159.49137471 165.88982584 158.79724336 165.20124322 C156.55787294 162.97609773 154.32928228 160.74047127 152.10058594 158.50463867 C150.49076492 156.90052397 148.88031544 155.29703975 147.26928711 153.69413757 C142.90712994 149.34989561 138.55455528 144.99617203 134.20420361 140.64011168 C130.56870817 137.00152277 126.9286278 133.36753811 123.28856874 129.73351556 C114.2109684 120.67075467 105.14262479 111.59880777 96.07849529 102.52257881 C88.21491134 94.64905889 80.33994124 86.78704263 72.4594402 78.93045791 C64.35610446 70.85152875 56.26041508 62.76502865 48.17239594 54.67076093 C43.63614886 50.1311438 39.09705566 45.59446993 34.55052948 41.06514549 C30.2766701 36.80675263 26.01263145 32.5387636 21.75592041 28.26323128 C20.19367907 26.69730368 18.62803137 25.1347658 17.05872345 23.5759201 C14.91417054 21.44457468 12.7823658 19.3012248 10.65325928 17.15446472 C10.03225208 16.54306253 9.41124488 15.93166034 8.77141929 15.30173081 C4.8057315 11.26827373 0 5.98204301 0 0 Z " fill="#C5669E" transform="translate(0,183)"/>
<path d="M0 0 C5.94 0 11.88 0 18 0 C18.144375 1.44375 18.28875 2.8875 18.4375 4.375 C19.33556801 8.71876902 20.60624517 11.15223318 23.63424683 14.37709045 C24.44948696 15.24704714 25.2647271 16.11700382 26.10467148 17.01332283 C27.06751156 18.0110769 28.03277808 19.0064931 29 20 C29.79869436 20.82141232 29.79869436 20.82141232 30.61352396 21.65941882 C35.17989341 26.33736322 39.79625208 30.96497368 44.41455078 35.59155273 C45.96133205 37.14461047 47.50792728 38.69785352 49.05435181 40.25126648 C54.09779208 45.31558369 59.14642071 50.37471244 64.1953125 55.43359375 C65.93893508 57.18126801 67.68252495 58.92897492 69.42608261 60.67671394 C77.60927116 68.87890673 85.79483512 77.07871971 93.98335087 85.27559417 C102.48239556 93.78346009 110.97618708 102.2964802 119.46142578 110.81811523 C127.70013335 119.09204583 135.94573949 127.35902146 144.20020664 135.61723095 C148.56307269 139.98244776 152.92256816 144.35091013 157.27402115 148.72750664 C161.36111728 152.83784282 165.45758451 156.93860008 169.56145859 161.03218269 C171.0649403 162.5351682 172.56500637 164.04157947 174.06137085 165.551651 C176.1052775 167.61322903 178.16116299 169.66207818 180.2204895 171.70823669 C180.80873037 172.3074468 181.39697123 172.90665691 182.00303757 173.5240249 C186.84686915 178.2934701 191.89543071 181.42578275 198.9375 181.4375 C199.70964844 181.45683594 200.48179687 181.47617187 201.27734375 181.49609375 C208.7451985 180.1353799 213.97974198 175.60372713 219.16119385 170.34674072 C219.83490957 169.67926496 220.50862529 169.0117892 221.20275664 168.3240869 C223.44455084 166.09817238 225.67186289 163.85832509 227.89941406 161.61816406 C229.50902023 160.0139812 231.11947541 158.41064984 232.73071289 156.80810547 C237.09513011 152.46189938 241.44682858 148.10316438 245.79579639 143.74150562 C250.35231906 139.17484403 254.91860671 134.61796349 259.4833374 130.05950928 C267.63745446 121.91313166 275.78144461 113.75672403 283.92150471 105.59630463 C291.29458909 98.2053505 298.67809768 90.82494641 306.06933594 83.45214844 C314.66322941 74.87968587 323.25032308 66.30052221 331.82760406 57.71143126 C336.36410191 53.16870274 340.90324614 48.62870717 345.44947052 44.09571075 C349.72343118 39.83331876 353.98746121 35.56123336 358.24407959 31.28152466 C359.80632737 29.71399535 361.37197522 28.1498461 362.94127655 26.58937836 C365.08583203 24.45578291 367.21764127 22.31019739 369.34674072 20.16119385 C369.96774792 19.54910954 370.58875512 18.93702523 371.22858071 18.30639291 C375.25414068 14.2077178 377.65774772 10.25238431 380 5 C380.33 5.66 380.66 6.32 381 7 C378.40851907 13.27360279 375.06332909 17.51414423 370.27081299 22.24385071 C369.59517012 22.9264391 368.91952726 23.60902749 368.22341037 24.31230038 C365.96986251 26.58406123 363.70237587 28.84135568 361.43457031 31.09887695 C359.81069058 32.72981789 358.18765482 34.3615995 356.56539917 35.99415588 C352.16558103 40.41645235 347.75315334 44.82595972 343.33764744 49.23258615 C339.65080274 52.91431736 335.97018108 56.60223799 332.28953815 60.29016751 C323.11091447 69.48675556 313.92017303 78.6711258 304.7236875 87.84984835 C296.74393833 95.81489671 288.77895432 103.79452185 280.82098261 111.78132341 C272.64004736 119.99167417 264.44967011 128.19248836 256.24949718 136.38362664 C251.64957549 140.9786188 247.05330097 145.57711163 242.4661026 150.18480873 C238.1533236 154.51593639 233.82857466 158.8347437 229.49432755 163.14438438 C227.90656598 164.7271361 226.32304403 166.31415409 224.74412918 167.9057312 C222.58650133 170.07928749 220.41401079 172.2368269 218.23712158 174.3910675 C217.61725538 175.02276944 216.99738917 175.65447137 216.35873914 176.30531579 C211.35116339 181.20776438 205.75061035 184.42355652 198.5 184.4375 C197.8296875 184.45683594 197.159375 184.47617187 196.46875 184.49609375 C188.42047229 182.87879744 183.1957166 177.75914899 177.65625 172.11035156 C176.86504257 171.31972824 176.07383514 170.52910492 175.25865173 169.71452332 C172.66283197 167.11593143 170.08144493 164.50349068 167.5 161.890625 C165.6962697 160.07942929 163.89165042 158.2691185 162.08618164 156.45965576 C157.83262172 152.19241784 153.58808696 147.91640284 149.34785748 143.63593364 C144.51655773 138.7597931 139.67377982 133.89512039 134.83004379 129.03133821 C124.87394711 119.03352647 114.93222184 109.02152634 105 99 C101.95318616 100.36087026 99.86917946 101.88868806 97.52897644 104.25743103 C96.86046158 104.9289772 96.19194672 105.60052338 95.50317383 106.29241943 C94.78049316 107.02857483 94.0578125 107.76473022 93.31323242 108.52319336 C92.54360672 109.29895218 91.77398102 110.074711 90.98103333 110.87397766 C89.31032085 112.55899657 87.64185261 114.24624292 85.97536278 115.93543816 C83.33633508 118.60922947 80.69029087 121.27588407 78.04206848 123.94056702 C70.5135802 131.51797543 62.99622241 139.10633684 55.48803711 146.70385742 C50.89530291 151.35106518 46.2919493 155.98761112 41.68294716 160.61868477 C39.92929968 162.38474112 38.17945551 164.15458256 36.43352318 165.92826653 C33.98975472 168.41052454 31.53385911 170.88016331 29.07495117 173.34741211 C28.3583432 174.08154327 27.64173523 174.81567444 26.90341187 175.572052 C21.68650324 180.76886023 16.75522471 184.42470013 9.0625 184.4375 C8.29035156 184.45683594 7.51820313 184.47617187 6.72265625 184.49609375 C-1.46655667 183.00394161 -6.73559181 177.82919632 -12.34375 172.11035156 C-13.13495743 171.31972824 -13.92616486 170.52910492 -14.74134827 169.71452332 C-17.33716803 167.11593143 -19.91855507 164.50349068 -22.5 161.890625 C-24.3037303 160.07942929 -26.10834958 158.2691185 -27.91381836 156.45965576 C-32.16737828 152.19241784 -36.41191304 147.91640284 -40.65214252 143.63593364 C-45.48344227 138.7597931 -50.32622018 133.89512039 -55.16995621 129.03133821 C-65.12605289 119.03352647 -75.06777816 109.02152634 -85 99 C-88.04681384 100.36087026 -90.13082054 101.88868806 -92.47102356 104.25743103 C-93.13953842 104.9289772 -93.80805328 105.60052338 -94.49682617 106.29241943 C-95.21950684 107.02857483 -95.9421875 107.76473022 -96.68676758 108.52319336 C-97.45639328 109.29895218 -98.22601898 110.074711 -99.01896667 110.87397766 C-100.68967915 112.55899657 -102.35814739 114.24624292 -104.02463722 115.93543816 C-106.66366492 118.60922947 -109.30970913 121.27588407 -111.95793152 123.94056702 C-119.4864198 131.51797543 -127.00377759 139.10633684 -134.51196289 146.70385742 C-139.10469709 151.35106518 -143.7080507 155.98761112 -148.31705284 160.61868477 C-150.07070032 162.38474112 -151.82054449 164.15458256 -153.56647682 165.92826653 C-156.01024528 168.41052454 -158.46614089 170.88016331 -160.92504883 173.34741211 C-161.6416568 174.08154327 -162.35826477 174.81567444 -163.09658813 175.572052 C-167.7352867 180.19287797 -171.75259027 183.28626723 -178.37109375 184.3984375 C-179.05300781 184.39070312 -179.73492187 184.38296875 -180.4375 184.375 C-181.11683594 184.38273438 -181.79617187 184.39046875 -182.49609375 184.3984375 C-190.30539904 183.15577114 -194.8917823 179.84025279 -200.28181458 174.35983276 C-200.96848652 173.68166634 -201.65515847 173.00349991 -202.36263865 172.30478299 C-204.65065107 170.03897934 -206.92046853 167.75580255 -209.19067383 165.47216797 C-210.83126015 163.8399975 -212.47289926 162.20888467 -214.11550903 160.57875061 C-218.56702753 156.15427875 -223.00253248 151.71407445 -227.43451524 147.27004385 C-231.13753576 143.55989068 -234.84834741 139.85758059 -238.55920047 136.15526402 C-247.81400519 126.92155079 -257.05361429 117.67279794 -266.28615692 108.41683127 C-273.79865347 100.8860863 -281.32560214 93.37003892 -288.86303711 85.86425781 C-297.62521002 77.13888027 -306.37706502 68.40334946 -315.11459368 59.65328896 C-319.73650792 55.0248883 -324.3625619 50.40083391 -328.99961281 45.78759384 C-333.35929944 41.4491569 -337.70412136 37.09636024 -342.03798294 32.73213005 C-343.62953965 31.1342455 -345.2262109 29.54143627 -346.82835579 27.95416832 C-349.01746145 25.78374711 -351.18718698 23.59559723 -353.35310364 21.40206909 C-353.98869652 20.78054266 -354.6242894 20.15901623 -355.27914268 19.51865566 C-359.57444416 15.11257663 -361.52556733 10.96137657 -363 5 C-361 6 -361 6 -359.29166985 9.61450481 C-357.02827093 14.29452922 -354.01174847 17.54622643 -350.33328247 21.16792297 C-349.66439558 21.84234426 -348.99550869 22.51676555 -348.3063525 23.21162385 C-346.07576696 25.45575855 -343.83124759 27.68539612 -341.58642578 29.9152832 C-339.97899048 31.52650367 -338.37241425 33.13858157 -336.76663208 34.75144958 C-332.41219136 39.11983435 -328.04530159 43.47557258 -323.67564249 47.82872796 C-319.10241476 52.38809245 -314.53936138 56.95761998 -309.974823 61.52568054 C-302.31002986 69.19317436 -294.6372438 76.8525848 -286.95947266 84.50708008 C-279.0648429 92.37777936 -271.17869606 100.25685798 -263.30126953 108.14477539 C-253.79854561 117.6601321 -244.28828657 127.16787265 -234.77135849 136.66902733 C-231.13959337 140.29503396 -227.51076497 143.92394265 -223.88425064 147.55520058 C-219.61478635 151.82943586 -215.33795403 156.09615971 -211.0553093 160.35718727 C-209.48458944 161.92234137 -207.91641088 163.49005056 -206.35096741 165.06048203 C-204.21439831 167.20300418 -202.06881838 169.33607705 -199.92068481 171.46699524 C-199.30277482 172.09091528 -198.68486483 172.71483532 -198.04823029 173.35766202 C-193.21327155 178.1223559 -188.66923382 181.42717121 -181.625 181.4375 C-180.75101563 181.45683594 -179.87703125 181.47617187 -178.9765625 181.49609375 C-171.36162641 180.22693773 -166.09754517 175.68128591 -160.83207703 170.33328247 C-160.15765574 169.66439558 -159.48323445 168.99550869 -158.78837615 168.3063525 C-156.54424145 166.07576696 -154.31460388 163.83124759 -152.0847168 161.58642578 C-150.47349633 159.97899048 -148.86141843 158.37241425 -147.24855042 156.76663208 C-142.88016565 152.41219136 -138.52442742 148.04530159 -134.17127204 143.67564249 C-129.61190755 139.10241476 -125.04238002 134.53936138 -120.47431946 129.974823 C-112.80682564 122.31002986 -105.1474152 114.6372438 -97.49291992 106.95947266 C-89.62222064 99.0648429 -81.74314202 91.17869606 -73.85522461 83.30126953 C-64.3398679 73.79854561 -54.83212735 64.28828657 -45.33097267 54.77135849 C-41.70496604 51.13959337 -38.07605735 47.51076497 -34.44479942 43.88425064 C-30.17056414 39.61478635 -25.90384029 35.33795403 -21.64281273 31.0553093 C-20.07765863 29.48458944 -18.50994944 27.91641088 -16.93951797 26.35096741 C-14.79699582 24.21439831 -12.66392295 22.06881838 -10.53300476 19.92068481 C-9.90908472 19.30277482 -9.28516468 18.68486483 -8.64233798 18.04823029 C-3.01507795 12.33798515 -1.16827916 8.17795413 0 0 Z " fill="#9E005D" transform="translate(363,180)"/>
<path d="M0 0 C4.26513795 2.45112184 7.50421347 5.84450909 10.92018318 9.34409332 C11.72129021 10.14447021 12.52239723 10.94484711 13.34778023 11.76947784 C15.97306438 14.39822456 18.58022579 17.04418978 21.18751717 19.69077301 C23.01201857 21.52460713 24.83763251 23.35733501 26.66430855 25.18900299 C30.9657542 29.50754001 35.25589017 33.8370177 39.54065508 38.17209697 C44.42317449 43.11068662 49.32006006 48.03492619 54.21814835 52.95806742 C64.28509296 63.07714203 74.33405254 73.213933 84.37111092 83.36264801 C83.01922619 86.38332396 81.51734419 88.4574318 79.16510201 90.77552032 C78.50486031 91.43128555 77.84461861 92.08705078 77.16436958 92.76268768 C76.44070702 93.47130447 75.71704445 94.17992126 74.97145271 94.91001129 C74.20866005 95.66506454 73.44586739 96.4201178 72.65995979 97.19805145 C71.00273569 98.83762018 69.34332406 100.4749801 67.68199921 102.11039352 C65.04930238 104.70367297 62.42419242 107.30440566 59.80124092 109.90753937 C52.34241814 117.30833169 44.8742502 124.69956441 37.39088631 132.07553864 C32.81314189 136.58865138 28.24782864 141.11403162 23.68999863 145.64725113 C21.95440239 147.36862986 20.21415155 149.08532917 18.46910858 150.79713058 C16.02069264 153.19956643 13.58840037 155.61732223 11.15895271 158.03891754 C10.44136284 158.73538895 9.72377296 159.43186035 8.98443794 160.14943695 C4.06367063 165.09951395 1.23410758 169.99210559 -1.62888908 176.36264801 C-7.56888908 176.36264801 -13.50888908 176.36264801 -19.62888908 176.36264801 C-20.28882362 174.88942078 -20.94875816 173.41619354 -21.62869072 171.89832306 C-24.47772074 166.22297591 -28.11704864 162.19709691 -32.63206291 157.79184723 C-33.42283226 157.00034775 -34.21360161 156.20884827 -35.02833366 155.39336395 C-37.61917782 152.80597554 -40.22721777 150.23670647 -42.83592033 147.66733551 C-44.64590615 145.86668485 -46.45478397 144.06491981 -48.26260185 142.26209259 C-52.52089687 138.02087293 -56.79011906 133.79097081 -61.06497449 129.5664674 C-65.93589847 124.75166346 -70.79242902 119.9224495 -75.64787447 115.09204459 C-85.62574663 105.1662666 -95.62132787 95.25848526 -105.62888908 85.36264801 C-104.27030813 82.33111645 -102.74260491 80.22249965 -100.40510368 77.87143707 C-99.74078331 77.19858673 -99.07646294 76.52573639 -98.39201164 75.83249664 C-97.66371147 75.10510284 -96.9354113 74.37770905 -96.18504143 73.62827301 C-95.41731407 72.85382843 -94.64958672 72.07938385 -93.85859489 71.28147125 C-91.31598764 68.71984864 -88.76588382 66.16585388 -86.21482658 63.61264801 C-84.44308119 61.83447626 -82.67148701 60.05615384 -80.90003777 58.27768707 C-77.18285461 54.54852164 -73.46158862 50.82347235 -69.7377758 47.10092926 C-65.44452272 42.80887593 -61.1625307 38.50581361 -56.88571775 34.19738388 C-52.76081519 30.04308652 -48.62481045 25.89999035 -44.48459053 21.76096344 C-42.72954699 20.00356316 -40.97773784 18.24292653 -39.22927284 16.47898102 C-36.77864 14.0086941 -34.31558572 11.55147194 -31.84910393 9.09702301 C-31.13294914 8.36962921 -30.41679436 7.64223541 -29.67893791 6.89279938 C-20.61605747 -2.05847815 -12.00064239 -5.57600492 0 0 Z " fill="#C5679F" transform="translate(382.6288890838623,3.6373519897460938)"/>
</svg>
